<svg xmlns="http://www.w3.org/2000/svg" viewBox="0 0 1080 1080" width="1080" height="1080" style="width: 100%; height: 100%; transform: translate3d(0px, 0px, 0px);" preserveAspectRatio="xMidYMid meet"><defs><clipPath id="__lottie_element_3"><rect width="1080" height="1080" x="0" y="0"></rect></clipPath></defs><g clip-path="url(#__lottie_element_3)"><g style="display: block;" transform="matrix(1,0,0,1,148,540)" opacity="1"><g opacity="1" transform="matrix(0.9366459846496582,0.4821975529193878,-0.2796386778354645,0.5431849360466003,372.906005859375,3.367000102996826)"><path stroke-linecap="butt" stroke-linejoin="miter" fill-opacity="0" stroke-miterlimit="4" stroke-dasharray=" 10" stroke-dashoffset="41.01329803466797" stroke="rgb(241,241,241)" stroke-opacity="1" stroke-width="7" d=" M0,-408.02349853515625 C225.18817138671875,-408.02349853515625 408.02349853515625,-225.18817138671875 408.02349853515625,0 C408.02349853515625,225.18817138671875 225.18817138671875,408.02349853515625 0,408.02349853515625 C-225.18817138671875,408.02349853515625 -408.02349853515625,225.18817138671875 -408.02349853515625,0 C-408.02349853515625,-225.18817138671875 -225.18817138671875,-408.02349853515625 0,-408.02349853515625z"></path></g></g><g style="display: block;" transform="matrix(1,0,0,1,148,540)" opacity="1"><g opacity="1" transform="matrix(0.6852428913116455,0.12862350046634674,-0.07341137528419495,0.39109981060028076,377.50799560546875,4.1020002365112305)"><path stroke-linecap="butt" stroke-linejoin="miter" fill-opacity="0" stroke-miterlimit="4" stroke-dasharray=" 10" stroke-dashoffset="41.01329803466797" stroke="rgb(241,241,241)" stroke-opacity="1" stroke-width="7" d=" M0,-408.02349853515625 C225.18817138671875,-408.02349853515625 408.02349853515625,-225.18817138671875 408.02349853515625,0 C408.02349853515625,225.18817138671875 225.18817138671875,408.02349853515625 0,408.02349853515625 C-225.18817138671875,408.02349853515625 -408.02349853515625,225.18817138671875 -408.02349853515625,0 C-408.02349853515625,-225.18817138671875 -225.18817138671875,-408.02349853515625 0,-408.02349853515625z"></path></g></g><g style="display: block;" transform="matrix(1,0,0,1,148,540)" opacity="1"><g opacity="1" transform="matrix(0.9926772713661194,-0.31335189938545227,0.18033026158809662,0.571273922920227,372.906005859375,3.367000102996826)"><path stroke-linecap="butt" stroke-linejoin="miter" fill-opacity="0" stroke-miterlimit="4" stroke-dasharray=" 10" stroke-dashoffset="59.1234130859375" stroke="rgb(241,241,241)" stroke-opacity="1" stroke-width="7" d=" M0,-408.02349853515625 C225.18817138671875,-408.02349853515625 408.02349853515625,-225.18817138671875 408.02349853515625,0 C408.02349853515625,225.18817138671875 225.18817138671875,408.02349853515625 0,408.02349853515625 C-225.18817138671875,408.02349853515625 -408.02349853515625,225.18817138671875 -408.02349853515625,0 C-408.02349853515625,-225.18817138671875 -225.18817138671875,-408.02349853515625 0,-408.02349853515625z"></path></g></g><g style="display: block;" transform="matrix(1,0,0,1,540,540)" opacity="1"><g opacity="1" transform="matrix(1,0,0,1,0,0)"><path stroke-linecap="butt" stroke-linejoin="miter" fill-opacity="0" stroke-miterlimit="4" stroke="rgb(222,222,222)" stroke-opacity="1" stroke-width="2" d=" M-211.875,-451.5 C-225,-455 -250.625,-453.875 -265.125,-441.75 C-279.625,-429.625 -310,-402 -294,-287 C-278,-172 -190,40 -62,217 C66,394 163,427 190,433 C217,439 266,436 276,361 C286,286 258,171 206,50 C154,-71 103,-149 38,-239 C-27,-329 -100,-393 -135,-417 C-170,-441 -198.75,-448 -211.875,-451.5z"></path></g></g><g style="display: block;" transform="matrix(1,0,0,1,540,540)" opacity="1"><g opacity="1" transform="matrix(1,0,0,1,0,0)"><path stroke-linecap="round" stroke-linejoin="miter" fill-opacity="0" stroke-miterlimit="4" stroke="rgb(255,229,235)" stroke-opacity="1" stroke-width="2" d=" M-294,-287 C-278,-172 -190,40 -62,217 C-31.246000289916992,259.5260009765625 -2.2820000648498535,293.739990234375 24.35099983215332,321.2640075683594"></path></g></g><g style="display: block;" transform="matrix(1.8992400169372559,0,0,1.8992400169372559,976.430908203125,1723.460205078125)" opacity="1"><g opacity="1" transform="matrix(1,0,0,1,-217.0019989013672,-454.00201416015625)"><path fill="rgb(255,255,255)" fill-opacity="1" d=" M0,-4.998000144958496 C2.7583963871002197,-4.998000144958496 4.998000144958496,-2.7583963871002197 4.998000144958496,0 C4.998000144958496,2.7583963871002197 2.7583963871002197,4.998000144958496 0,4.998000144958496 C-2.7583963871002197,4.998000144958496 -4.998000144958496,2.7583963871002197 -4.998000144958496,0 C-4.998000144958496,-2.7583963871002197 -2.7583963871002197,-4.998000144958496 0,-4.998000144958496z"></path><path stroke-linecap="butt" stroke-linejoin="miter" fill-opacity="0" stroke-miterlimit="4" stroke="rgb(255,158,178)" stroke-opacity="1" stroke-width="1" d=" M0,-4.998000144958496 C2.7583963871002197,-4.998000144958496 4.998000144958496,-2.7583963871002197 4.998000144958496,0 C4.998000144958496,2.7583963871002197 2.7583963871002197,4.998000144958496 0,4.998000144958496 C-2.7583963871002197,4.998000144958496 -4.998000144958496,2.7583963871002197 -4.998000144958496,0 C-4.998000144958496,-2.7583963871002197 -2.7583963871002197,-4.998000144958496 0,-4.998000144958496z"></path></g></g><g style="display: block;" transform="matrix(1,0,0,1,540,540)" opacity="1"><g opacity="1" transform="matrix(1,0,0,1,0,0)"><path stroke-linecap="butt" stroke-linejoin="miter" fill-opacity="0" stroke-miterlimit="4" stroke="rgb(222,222,222)" stroke-opacity="1" stroke-width="2" d=" M317,-377 C278.5,-379 252.5,-373.5 229,-366 C205.5,-358.5 125.5,-327 12.5,-243 C-100.5,-159 -190.5,-57 -239.5,3 C-288.5,63 -347.5,149 -373,224.5 C-398.5,300 -391,370 -303,362 C-215,354 -133,297 -70.5,254.5 C-8,212 79.5,144.5 180,29 C280.5,-86.5 323,-158 355.5,-243 C388,-328 355.5,-375 317,-377z"></path></g></g><g style="display: block;" transform="matrix(1,0,0,1,540,540)" opacity="1"><g opacity="1" transform="matrix(1,0,0,1,0,0)"><path stroke-linecap="butt" stroke-linejoin="miter" fill-opacity="0" stroke-miterlimit="4" stroke="rgb(255,229,235)" stroke-opacity="1" stroke-width="2" d=" M-143.12100219726562,301.97698974609375 C-116.89199829101562,286.20001220703125 -92.48899841308594,269.4530029296875 -70.5,254.5 C-14.345999717712402,216.31500244140625 61.98899841308594,157.9499969482422 149.80099487304688,62.72200012207031"></path></g></g><g style="display: block;" transform="matrix(1.499079942703247,0,0,1.499079942703247,722.2484130859375,1522.522216796875)" opacity="1"><g opacity="1" transform="matrix(1,0,0,1,-217.0019989013672,-454.00201416015625)"><path fill="rgb(255,255,255)" fill-opacity="1" d=" M0,-4.998000144958496 C2.7583963871002197,-4.998000144958496 4.998000144958496,-2.7583963871002197 4.998000144958496,0 C4.998000144958496,2.7583963871002197 2.7583963871002197,4.998000144958496 0,4.998000144958496 C-2.7583963871002197,4.998000144958496 -4.998000144958496,2.7583963871002197 -4.998000144958496,0 C-4.998000144958496,-2.7583963871002197 -2.7583963871002197,-4.998000144958496 0,-4.998000144958496z"></path><path stroke-linecap="butt" stroke-linejoin="miter" fill-opacity="0" stroke-miterlimit="4" stroke="rgb(255,188,234)" stroke-opacity="1" stroke-width="1" d=" M0,-4.998000144958496 C2.7583963871002197,-4.998000144958496 4.998000144958496,-2.7583963871002197 4.998000144958496,0 C4.998000144958496,2.7583963871002197 2.7583963871002197,4.998000144958496 0,4.998000144958496 C-2.7583963871002197,4.998000144958496 -4.998000144958496,2.7583963871002197 -4.998000144958496,0 C-4.998000144958496,-2.7583963871002197 -2.7583963871002197,-4.998000144958496 0,-4.998000144958496z"></path></g></g><g style="display: block;" transform="matrix(1,0,0,1,540,540)" opacity="1"><g opacity="1" transform="matrix(1,0,0,1,0,0)"><path stroke-linecap="butt" stroke-linejoin="miter" fill-opacity="0" stroke-miterlimit="4" stroke="rgb(222,222,222)" stroke-opacity="1" stroke-width="2" d=" M279,-155.5 C209,-165.5 145.5,-157.5 82,-151.5 C18.5,-145.5 -117,-112 -192.5,-82 C-268,-52 -319,-25.5 -372.5,13.5 C-426,52.5 -431.5,96 -422,116.5 C-412.5,137 -369.5,168.5 -264.5,172 C-159.5,175.5 -56.5,162 69,127 C194.5,92 264.5,54.5 314.5,21.5 C364.5,-11.5 397.5,-46.5 399,-77.5 C401.27301025390625,-124.46900177001953 349,-145.5 279,-155.5z"></path></g></g><g style="display: block;" transform="matrix(1,0,0,1,540,540)" opacity="1"><g opacity="1" transform="matrix(1,0,0,1,0,0)"><path stroke-linecap="round" stroke-linejoin="miter" fill-opacity="0" stroke-miterlimit="4" stroke="rgb(214,231,255)" stroke-opacity="1" stroke-width="2" d=" M350.4530029296875,-5.090000152587891 C379.79998779296875,-29.799999237060547 397.89801025390625,-54.729000091552734 399,-77.5 C401.27301025390625,-124.46900177001953 349,-145.5 279,-155.5 C279,-155.5 279,-155.5 279,-155.5 C209,-165.5 145.5,-157.5 82,-151.5 C18.5,-145.5 -117,-112 -192.5,-82 C-234.04600524902344,-65.49199676513672 -268.17401123046875,-50.042999267578125 -299.3819885253906,-32.987998962402344"></path></g></g><g style="display: block;" transform="matrix(1.499079942703247,0,0,1.499079942703247,555.4712524414062,1193.4312744140625)" opacity="1"><g opacity="1" transform="matrix(1,0,0,1,-217.0019989013672,-454.00201416015625)"><path fill="rgb(255,255,255)" fill-opacity="1" d=" M0,-4.998000144958496 C2.7583963871002197,-4.998000144958496 4.998000144958496,-2.7583963871002197 4.998000144958496,0 C4.998000144958496,2.7583963871002197 2.7583963871002197,4.998000144958496 0,4.998000144958496 C-2.7583963871002197,4.998000144958496 -4.998000144958496,2.7583963871002197 -4.998000144958496,0 C-4.998000144958496,-2.7583963871002197 -2.7583963871002197,-4.998000144958496 0,-4.998000144958496z"></path><path stroke-linecap="butt" stroke-linejoin="miter" fill-opacity="0" stroke-miterlimit="4" stroke="rgb(160,201,255)" stroke-opacity="1" stroke-width="1" d=" M0,-4.998000144958496 C2.7583963871002197,-4.998000144958496 4.998000144958496,-2.7583963871002197 4.998000144958496,0 C4.998000144958496,2.7583963871002197 2.7583963871002197,4.998000144958496 0,4.998000144958496 C-2.7583963871002197,4.998000144958496 -4.998000144958496,2.7583963871002197 -4.998000144958496,0 C-4.998000144958496,-2.7583963871002197 -2.7583963871002197,-4.998000144958496 0,-4.998000144958496z"></path></g></g><g style="display: block;" transform="matrix(1,0,0,1,520,538)" opacity="1"><g opacity="1" transform="matrix(1,0,0,1,-4.875,1.125)"><path stroke-linecap="butt" stroke-linejoin="miter" fill-opacity="0" stroke-miterlimit="4" stroke="rgb(222,222,222)" stroke-opacity="1" stroke-width="2" d=" M0,-323.125 C178.45700073242188,-323.125 323.125,-178.45700073242188 323.125,0 C323.125,178.45700073242188 178.45700073242188,323.125 0,323.125 C-178.45700073242188,323.125 -323.125,178.45700073242188 -323.125,0 C-323.125,-178.45700073242188 -178.45700073242188,-323.125 0,-323.125z"></path></g></g><g style="display: block;" transform="matrix(1,0,0,1,520,538)" opacity="1"><g opacity="1" transform="matrix(1,0,0,1,-4.875,1.125)"><path stroke-linecap="round" stroke-linejoin="miter" fill-opacity="0" stroke-miterlimit="4" stroke="rgb(214,255,254)" stroke-opacity="1" stroke-width="2" d=" M21.708999633789062,322.406005859375 C14.534000396728516,322.88299560546875 7.295000076293945,323.125 0,323.125 C-171.03799438476562,323.125 -311.2229919433594,189.93600463867188 -322.406005859375,21.708999633789062"></path></g></g><g style="display: block;" transform="matrix(1.499079942703247,0,0,1.499079942703247,519.1617431640625,1253.543701171875)" opacity="1"><g opacity="1" transform="matrix(1,0,0,1,-217.0019989013672,-454.00201416015625)"><path fill="rgb(255,255,255)" fill-opacity="1" d=" M0,-4.998000144958496 C2.7583963871002197,-4.998000144958496 4.998000144958496,-2.7583963871002197 4.998000144958496,0 C4.998000144958496,2.7583963871002197 2.7583963871002197,4.998000144958496 0,4.998000144958496 C-2.7583963871002197,4.998000144958496 -4.998000144958496,2.7583963871002197 -4.998000144958496,0 C-4.998000144958496,-2.7583963871002197 -2.7583963871002197,-4.998000144958496 0,-4.998000144958496z"></path><path stroke-linecap="butt" stroke-linejoin="miter" fill-opacity="0" stroke-miterlimit="4" stroke="rgb(180,255,253)" stroke-opacity="1" stroke-width="1" d=" M0,-4.998000144958496 C2.7583963871002197,-4.998000144958496 4.998000144958496,-2.7583963871002197 4.998000144958496,0 C4.998000144958496,2.7583963871002197 2.7583963871002197,4.998000144958496 0,4.998000144958496 C-2.7583963871002197,4.998000144958496 -4.998000144958496,2.7583963871002197 -4.998000144958496,0 C-4.998000144958496,-2.7583963871002197 -2.7583963871002197,-4.998000144958496 0,-4.998000144958496z"></path></g></g><g style="display: block;" transform="matrix(1,0,0,1,540,540)" opacity="1"><g opacity="1" transform="matrix(1,0,0,1,0,0)"><path stroke-linecap="butt" stroke-linejoin="miter" fill-opacity="0" stroke-miterlimit="4" stroke="rgb(222,222,222)" stroke-opacity="1" stroke-width="2" d=" M19.5,-293 C-76,-309.5 -164.5,-308.5 -235,-274.5 C-305.5,-240.5 -344.9939880371094,-203.5240020751953 -374.5,-142.5 C-396.5,-97 -398.5,-27.5 -382.5,26 C-359.1199951171875,104.17500305175781 -322,149.5 -277,188.5 C-232,227.5 -161,283.5 -42.5,305 C76,326.5 171,306 238.5,262.5 C306,219 359,150 355.5,55 C352,-40 311.5,-98 270,-149.5 C228.5,-201 115,-276.5 19.5,-293z"></path></g></g><g style="display: block;" transform="matrix(1,0,0,1,540,540)" opacity="1"><g opacity="1" transform="matrix(1,0,0,1,0,0)"><path stroke-linecap="round" stroke-linejoin="miter" fill-opacity="0" stroke-miterlimit="4" stroke="rgb(255,237,214)" stroke-opacity="1" stroke-width="2" d=" M321.1789855957031,-75.05899810791016 C306.364013671875,-102.87100219726562 288.27899169921875,-126.81600189208984 270,-149.5 C228.5,-201 115,-276.5 19.5,-293 C19.5,-293 19.5,-293 19.5,-293 C-76,-309.5 -164.5,-308.5 -235,-274.5 C-285.4590148925781,-250.1649932861328 -320.0350036621094,-224.30599975585938 -346.4330139160156,-189.1959991455078"></path></g></g><g style="display: block;" transform="matrix(1.499079942703247,0,0,1.499079942703247,1185.747802734375,1144.156494140625)" opacity="1"><g opacity="1" transform="matrix(1,0,0,1,-217.0019989013672,-454.00201416015625)"><path fill="rgb(255,255,255)" fill-opacity="1" d=" M0,-4.998000144958496 C2.7583963871002197,-4.998000144958496 4.998000144958496,-2.7583963871002197 4.998000144958496,0 C4.998000144958496,2.7583963871002197 2.7583963871002197,4.998000144958496 0,4.998000144958496 C-2.7583963871002197,4.998000144958496 -4.998000144958496,2.7583963871002197 -4.998000144958496,0 C-4.998000144958496,-2.7583963871002197 -2.7583963871002197,-4.998000144958496 0,-4.998000144958496z"></path><path stroke-linecap="butt" stroke-linejoin="miter" fill-opacity="0" stroke-miterlimit="4" stroke="rgb(255,215,168)" stroke-opacity="1" stroke-width="1" d=" M0,-4.998000144958496 C2.7583963871002197,-4.998000144958496 4.998000144958496,-2.7583963871002197 4.998000144958496,0 C4.998000144958496,2.7583963871002197 2.7583963871002197,4.998000144958496 0,4.998000144958496 C-2.7583963871002197,4.998000144958496 -4.998000144958496,2.7583963871002197 -4.998000144958496,0 C-4.998000144958496,-2.7583963871002197 -2.7583963871002197,-4.998000144958496 0,-4.998000144958496z"></path></g></g><g style="display: block;" transform="matrix(1,0,0,1,540,540)" opacity="1"><g opacity="1" transform="matrix(1,0,0,1,0,0)"><path stroke-linecap="butt" stroke-linejoin="miter" fill-opacity="0" stroke-miterlimit="4" stroke="rgb(222,222,222)" stroke-opacity="1" stroke-width="2" d=" M394.5,-308 C374.5,-339.5 303.5,-353 172,-300 C40.5,-247 -43.5,-186 -133.5,-119 C-223.5,-52 -317,50.5 -341,81.5 C-365,112.5 -425,194 -424,254.5 C-423,315 -364,323 -328,320 C-217.33700561523438,310.77801513671875 -116,251.5 -39,207.5 C38,163.5 99,115.5 168.5,58.5 C238,1.5 299.5,-63 355,-143.5 C410.5,-224 414.5,-276.5 394.5,-308z"></path></g></g><g style="display: block;" transform="matrix(1,0,0,1,540,540)" opacity="1"><g opacity="1" transform="matrix(1,0,0,1,0,0)"><path stroke-linecap="round" stroke-linejoin="miter" fill-opacity="0" stroke-miterlimit="4" stroke="rgb(254,252,215)" stroke-opacity="1" stroke-width="2" d=" M119.71399688720703,-277.4129943847656 C17.003000259399414,-229.90499877929688 -56.025001525878906,-176.67599487304688 -133.5,-119 C-223.5,-52 -317,50.5 -341,81.5 C-364.7070007324219,112.12200164794922 -423.5419921875,192.02000427246094 -424.010009765625,252.27699279785156"></path></g></g><g style="display: block;" transform="matrix(1.499079942703247,0,0,1.499079942703247,979.0018920898438,945.9778442382812)" opacity="1"><g opacity="1" transform="matrix(1,0,0,1,-217.0019989013672,-454.00201416015625)"><path fill="rgb(255,255,255)" fill-opacity="1" d=" M0,-4.998000144958496 C2.7583963871002197,-4.998000144958496 4.998000144958496,-2.7583963871002197 4.998000144958496,0 C4.998000144958496,2.7583963871002197 2.7583963871002197,4.998000144958496 0,4.998000144958496 C-2.7583963871002197,4.998000144958496 -4.998000144958496,2.7583963871002197 -4.998000144958496,0 C-4.998000144958496,-2.7583963871002197 -2.7583963871002197,-4.998000144958496 0,-4.998000144958496z"></path><path stroke-linecap="butt" stroke-linejoin="miter" fill-opacity="0" stroke-miterlimit="4" stroke="rgb(252,241,136)" stroke-opacity="1" stroke-width="1" d=" M0,-4.998000144958496 C2.7583963871002197,-4.998000144958496 4.998000144958496,-2.7583963871002197 4.998000144958496,0 C4.998000144958496,2.7583963871002197 2.7583963871002197,4.998000144958496 0,4.998000144958496 C-2.7583963871002197,4.998000144958496 -4.998000144958496,2.7583963871002197 -4.998000144958496,0 C-4.998000144958496,-2.7583963871002197 -2.7583963871002197,-4.998000144958496 0,-4.998000144958496z"></path></g></g></g></svg>
